<svg xmlns="http://www.w3.org/2000/svg" xmlns:xlink="http://www.w3.org/1999/xlink" viewBox="0 0 40 36.512">
  <defs>
    <style>
      .cls-1 {
        fill: url(#linear-gradient);
      }
    </style>
    <linearGradient id="linear-gradient" x1="1" y1="0.884" x2="0.104" y2="0.236" gradientUnits="objectBoundingBox">
      <stop offset="0" stop-color="#0052b5"/>
      <stop offset="1" stop-color="#0c7aff"/>
    </linearGradient>
  </defs>
  <path id="solution-car" class="cls-1" d="M38.31,29.14a2.162,2.162,0,0,0-.131-.475L33.424,17.052a2.989,2.989,0,0,0-2.63-1.77H24.762V13.376a.953.953,0,0,0-.953-.951H16.191a.953.953,0,0,0-.953.951v1.905H9.207a2.989,2.989,0,0,0-2.63,1.77L1.82,28.672a2.223,2.223,0,0,0-.131.469A4.726,4.726,0,0,0,0,32.744v5.083a4.7,4.7,0,0,0,.634,2.328v6.563a2.222,2.222,0,0,0,2.221,2.219H5.4a2.222,2.222,0,0,0,2.221-2.219V42.587H32.382v4.132A2.222,2.222,0,0,0,34.6,48.937h2.542a2.222,2.222,0,0,0,2.221-2.219V40.156A4.7,4.7,0,0,0,40,37.828V32.744A4.724,4.724,0,0,0,38.31,29.14ZM8.34,17.775a1.111,1.111,0,0,1,.867-.588H30.794a1.115,1.115,0,0,1,.868.588l4.2,10.275a4.46,4.46,0,0,0-.624-.064H4.763a4.463,4.463,0,0,0-.631.065ZM12.7,36.422a.952.952,0,0,1-.952.951H4.129a.951.951,0,0,1-.951-.951V34.149a.952.952,0,0,1,.951-.954h7.616a.953.953,0,0,1,.952.954v2.273Zm12.7-.82a.951.951,0,0,1-.951.951H15.555A.951.951,0,0,1,14.6,35.6v-.634a.952.952,0,0,1,.951-.954h8.891a.952.952,0,0,1,.951.954Zm11.426.82a.951.951,0,0,1-.951.951H28.255a.952.952,0,0,1-.952-.951V34.149a.953.953,0,0,1,.952-.954h7.616a.952.952,0,0,1,.951.954v2.273Z" transform="translate(0 -12.425)"/>
</svg>
