<svg xmlns="http://www.w3.org/2000/svg" xmlns:xlink="http://www.w3.org/1999/xlink" viewBox="0 0 41 36.667">
  <defs>
    <style>
      .cls-1 {
        fill: url(#linear-gradient);
      }
    </style>
    <linearGradient id="linear-gradient" x1="1.3" y1="1" x2="0.226" y2="0.137" gradientUnits="objectBoundingBox">
      <stop offset="0" stop-color="#0052b5"/>
      <stop offset="1" stop-color="#0c7aff"/>
    </linearGradient>
  </defs>
  <g id="solution-users" transform="translate(1 -2.5)">
    <path id="Path_7" data-name="Path 7" class="cls-1" d="M27.19,31.093l-6.333-3.184a1.755,1.755,0,0,1-.969-1.577V24.078c.152-.187.312-.4.477-.634a15.29,15.29,0,0,0,1.958-3.866,2.646,2.646,0,0,0,1.543-2.411V14.5a2.667,2.667,0,0,0-.663-1.75V9.2a6,6,0,0,0-1.387-4.35C20.455,3.292,18.245,2.5,15.248,2.5s-5.207.792-6.569,2.353A6,6,0,0,0,7.292,9.2v3.546a2.667,2.667,0,0,0-.663,1.75v2.667a2.657,2.657,0,0,0,.992,2.073,14.022,14.022,0,0,0,2.322,4.825v2.206a1.763,1.763,0,0,1-.913,1.547L3.117,31.06A6.019,6.019,0,0,0,0,36.341v2.825H30.5v-2.7A5.985,5.985,0,0,0,27.19,31.093Z" transform="translate(-1)"/>
    <path id="Path_8" data-name="Path 8" class="cls-1" d="M47.771,33.514l-6.6-2.8a1.33,1.33,0,0,1-.478-.513l4.43,0s.256.025.653.025a7.263,7.263,0,0,0,2.716-.47,1.969,1.969,0,0,0,1.133-1.269,1.942,1.942,0,0,0-.289-1.679c-1.266-1.766-4.221-6.381-4.314-11.061,0-.081-.27-8.04-8.289-8.1a10.258,10.258,0,0,0-2.289.275,7.055,7.055,0,0,1,.451,3.045v3.149a3.586,3.586,0,0,1,.679,2.09v2.662a3.642,3.642,0,0,1-1.77,3.1,16.064,16.064,0,0,1-2,3.74q-.153.213-.3.4v1.9a.745.745,0,0,0,.428.68l6.485,3.178a6.949,6.949,0,0,1,3.948,6.261v2.692h8.487v-2.46A5.37,5.37,0,0,0,47.771,33.514Z" transform="translate(-10.848 -1.65)"/>
  </g>
</svg>
