<svg xmlns="http://www.w3.org/2000/svg" xmlns:xlink="http://www.w3.org/1999/xlink" viewBox="0 0 35.567 36">
  <defs>
    <style>
      .cls-1 {
        fill: url(#linear-gradient);
      }
    </style>
    <linearGradient id="linear-gradient" x1="1" y1="1" x2="0" y2="0.151" gradientUnits="objectBoundingBox">
      <stop offset="0" stop-color="#0052b5"/>
      <stop offset="1" stop-color="#0c7aff"/>
    </linearGradient>
  </defs>
  <path id="solution-key" class="cls-1" d="M36.842,29.748a.945.945,0,0,0-.281-.6L22.383,14.97a10.761,10.761,0,1,0-5.7,5.7l4.658,4.661a.974.974,0,0,0,.725.284l2.538-.089-.083,2.545a.971.971,0,0,0,1,1l2.548-.087-.091,2.542a.992.992,0,0,0,.283.722.931.931,0,0,0,.725.284l2.541-.086-.085,2.542a.968.968,0,0,0,.305.746.978.978,0,0,0,.663.26c.035,0,.071,0,.107,0l3.9-.433a.977.977,0,0,0,.865-1.055ZM11.175,9.463a3.059,3.059,0,1,1,0-4.326A3.058,3.058,0,0,1,11.175,9.463Zm22.341,20.61a.736.736,0,0,1-1.036,0L20.417,18.006a10.3,10.3,0,0,0,.919-1.144L33.516,29.04A.732.732,0,0,1,33.516,30.072Z" transform="translate(-1.716)"/>
</svg>
